<?xml version="1.0" standalone="no"?>
<!DOCTYPE svg PUBLIC "-//W3C//DTD SVG 20010904//EN"
 "http://www.w3.org/TR/2001/REC-SVG-20010904/DTD/svg10.dtd">
<svg version="1.0" xmlns="http://www.w3.org/2000/svg"
 width="390.000000pt" height="390.000000pt" viewBox="0 0 390.000000 390.000000"
 preserveAspectRatio="xMidYMid meet">
<metadata>
Created by potrace 1.11, written by Peter Selinger 2001-2013
</metadata>
<g transform="translate(0.000000,390.000000) scale(0.100000,-0.100000)"
fill="#000000" stroke="none">
<path d="M2729 2604 l-144 -316 -3 311 -2 311 -312 -2 -311 -3 -286 -625
c-158 -344 -308 -665 -334 -715 -113 -212 -275 -413 -412 -510 -72 -52 -206
-120 -267 -136 -94 -25 -296 49 -410 151 -70 62 -78 44 -10 -22 65 -63 133
-104 227 -136 77 -26 87 -27 290 -26 230 2 352 16 498 59 304 88 535 302 732
679 l55 106 0 -315 0 -315 311 2 310 3 142 311 142 312 3 -309 2 -309 270 0
270 0 0 898 0 899 -202 6 c-112 4 -251 7 -309 7 l-106 0 -144 -316z"/>
</g>
</svg>
